<?xml version="1.0" standalone="no"?>
<!DOCTYPE svg PUBLIC "-//W3C//DTD SVG 20010904//EN"
 "http://www.w3.org/TR/2001/REC-SVG-20010904/DTD/svg10.dtd">
<svg version="1.0" xmlns="http://www.w3.org/2000/svg"
 width="600.000000pt" height="320.000000pt" viewBox="0 0 600.000000 320.000000"
 preserveAspectRatio="xMidYMid meet">

<g transform="translate(0.000000,320.000000) scale(0.100000,-0.100000)"
fill="#000000" stroke="none">
<path d="M2429 2910 c-70 -37 -125 -126 -161 -258 -17 -64 -21 -111 -23 -284
l-3 -207 -62 -73 c-35 -40 -66 -74 -70 -76 -3 -1 -21 18 -39 44 -96 133 -288
207 -472 183 l-78 -11 -107 77 c-126 91 -229 143 -316 157 -88 15 -134 5 -180
-42 -34 -34 -38 -43 -38 -88 0 -75 33 -138 133 -255 27 -32 48 -59 46 -61 -2
-1 -29 -19 -61 -40 -108 -70 -161 -145 -198 -277 -11 -40 -24 -77 -29 -82 -5
-5 -34 2 -69 16 -150 61 -247 69 -314 24 -42 -29 -58 -61 -58 -118 0 -104 109
-237 297 -364 57 -38 105 -76 107 -84 3 -9 10 -41 16 -71 12 -62 53 -150 96
-205 37 -46 171 -142 232 -165 26 -10 70 -21 99 -25 49 -6 53 -9 89 -63 53
-81 154 -174 232 -215 74 -39 160 -67 203 -67 23 0 38 -13 84 -75 54 -73 150
-156 222 -190 20 -10 61 -15 121 -15 l90 0 -5 113 c-7 129 3 187 48 289 47
108 48 127 5 199 -59 98 -77 167 -79 288 -1 126 12 188 64 300 48 103 49 132
8 179 -74 84 -105 224 -80 367 17 96 56 170 127 241 87 87 148 114 282 125 59
4 108 8 109 8 0 1 14 25 31 54 41 72 129 152 209 190 64 30 74 32 183 32 110
0 119 -2 181 -32 86 -43 148 -98 198 -178 45 -71 45 -71 182 -78 91 -5 153
-34 241 -116 108 -100 166 -272 140 -420 -12 -67 -62 -179 -93 -207 -27 -25
-24 -75 10 -142 65 -129 86 -247 71 -386 -11 -95 -28 -144 -77 -226 -18 -30
-33 -67 -33 -82 0 -15 16 -63 35 -106 49 -112 59 -168 52 -299 l-5 -113 85 0
c55 0 96 5 116 15 72 34 168 117 222 190 46 62 61 75 84 75 43 0 129 28 203
67 78 41 179 134 232 215 36 54 40 57 89 63 29 4 73 15 99 25 61 23 195 119
232 165 43 55 84 143 96 205 6 30 13 62 16 71 2 8 50 46 107 84 188 127 297
260 297 364 0 57 -16 89 -58 118 -67 45 -164 37 -314 -24 -35 -14 -64 -21 -69
-16 -5 5 -18 42 -29 82 -37 132 -90 207 -198 277 -32 21 -59 39 -61 40 -2 2
19 29 46 61 100 117 133 180 133 255 0 45 -4 54 -38 88 -93 93 -263 53 -496
-115 l-107 -77 -78 11 c-184 24 -376 -50 -471 -183 -19 -26 -36 -43 -40 -39
-3 5 -33 39 -65 76 l-58 68 -2 207 c-2 174 -5 219 -23 284 -50 184 -134 278
-247 278 -88 0 -154 -53 -206 -165 -26 -57 -69 -201 -69 -234 -1 -45 -14 -45
-127 -8 -182 60 -289 57 -451 -11 l-69 -29 -23 96 c-43 185 -101 291 -181 331
-49 25 -122 25 -170 0z m126 -194 c29 -50 59 -161 75 -277 13 -94 7 -145 -18
-153 -49 -16 -188 -34 -196 -26 -14 14 -9 217 8 302 22 113 72 218 97 202 5
-3 20 -24 34 -48z m1223 -24 c33 -77 54 -199 54 -315 1 -60 -3 -112 -8 -117
-8 -8 -147 10 -196 26 -19 6 -21 17 -18 119 3 121 47 283 92 340 19 24 22 25
38 10 10 -9 27 -37 38 -63z m-2696 -353 c68 -14 210 -88 266 -136 l42 -38 -48
-50 c-77 -79 -76 -79 -111 -60 -50 25 -175 158 -207 219 -25 49 -27 58 -14 66
18 12 9 12 72 -1z m4138 1 c13 -8 11 -17 -14 -66 -32 -61 -157 -194 -207 -219
-35 -19 -34 -19 -111 60 l-48 50 42 38 c54 46 187 117 253 133 63 16 67 16 85
4z m-3382 -260 c87 -46 143 -98 172 -159 24 -51 24 -51 7 -124 -21 -89 -22
-230 -2 -308 9 -33 31 -93 50 -135 l35 -76 -24 -56 c-41 -98 -58 -197 -59
-327 0 -139 16 -217 67 -318 l34 -67 -25 -62 c-32 -80 -53 -177 -53 -251 0
-57 0 -57 -22 -46 -36 19 -133 121 -153 159 -29 58 -65 90 -101 90 -148 0
-320 107 -403 249 -54 92 -63 98 -152 103 -91 6 -149 32 -225 101 -132 120
-158 308 -63 454 l42 64 -23 47 c-27 55 -39 193 -21 257 6 22 34 71 63 110 44
57 65 76 121 105 62 31 78 35 159 36 l90 2 46 58 c86 105 155 136 292 131 74
-3 93 -7 148 -37z m2829 25 c68 -20 109 -50 164 -119 l47 -58 90 -2 c81 -1 97
-5 159 -36 56 -29 77 -48 121 -105 29 -39 57 -88 63 -110 18 -64 6 -202 -21
-257 l-23 -47 41 -63 c96 -147 70 -335 -62 -455 -76 -69 -134 -95 -225 -101
-89 -5 -98 -11 -152 -103 -83 -142 -255 -249 -403 -249 -36 0 -72 -32 -101
-90 -19 -37 -138 -160 -155 -160 -6 0 -10 24 -10 53 0 69 -22 167 -54 246
l-26 63 24 42 c96 164 108 407 31 632 l-35 102 34 73 c18 41 40 99 47 129 19
79 17 221 -5 311 l-18 75 25 51 c37 72 127 144 225 179 50 18 157 17 219 -1z
m-4079 -564 c87 -27 232 -112 232 -136 0 -13 -72 -155 -78 -155 -4 0 -32 16
-62 36 -105 68 -230 208 -230 256 0 24 58 24 138 -1z m5192 1 c0 -48 -125
-188 -230 -256 -30 -20 -58 -36 -62 -36 -6 0 -78 142 -78 155 0 11 51 50 108
82 118 66 262 96 262 55z"/>
<path d="M1711 1814 c-12 -15 -21 -37 -21 -49 0 -12 9 -34 21 -49 44 -56 149
-19 149 53 0 66 -107 98 -149 45z"/>
<path d="M1637 1606 c-151 -42 -276 -210 -277 -372 0 -120 40 -200 128 -251
61 -36 154 -38 223 -5 83 40 208 190 244 292 18 51 19 138 3 192 -13 46 -72
108 -126 134 -47 23 -134 27 -195 10z m174 -86 c57 -30 79 -71 79 -149 0 -73
-29 -136 -105 -233 -141 -176 -348 -123 -347 89 1 204 216 373 373 293z"/>
<path d="M1625 1358 c-4 -13 -18 -35 -32 -49 -23 -25 -23 -27 -7 -43 10 -10
25 -15 37 -12 12 3 36 -2 54 -11 18 -8 40 -13 48 -9 23 8 18 42 -8 59 -13 8
-28 30 -33 49 -12 41 -49 52 -59 16z"/>
<path d="M1223 1100 c-31 -13 -56 -55 -49 -83 3 -13 15 -36 27 -50 41 -53 129
-23 129 44 0 37 -26 89 -44 89 -8 0 -20 2 -28 4 -7 3 -23 1 -35 -4z"/>
<path d="M4396 1819 c-57 -44 -16 -129 63 -129 31 0 44 6 60 26 43 54 10 124
-58 124 -24 0 -49 -8 -65 -21z"/>
<path d="M4425 1608 c-39 -14 -99 -58 -123 -89 -43 -56 -55 -169 -27 -249 36
-102 161 -252 244 -292 69 -34 162 -31 224 5 91 54 132 141 126 269 -7 134
-99 272 -222 332 -62 31 -173 43 -222 24z m181 -92 c226 -105 254 -459 38
-484 -93 -10 -195 72 -274 219 -37 71 -42 164 -10 216 43 72 151 93 246 49z"/>
<path d="M4550 1354 c-6 -14 -10 -29 -10 -34 0 -5 -11 -17 -25 -26 -28 -18
-33 -51 -10 -60 8 -4 30 1 48 9 18 9 42 14 54 11 12 -3 27 2 37 12 16 16 16
18 -7 43 -14 14 -28 36 -32 49 -9 31 -43 29 -55 -4z"/>
<path d="M4952 1103 c-26 -5 -52 -50 -52 -92 0 -74 94 -96 137 -32 29 43 29
63 1 95 -25 27 -51 35 -86 29z"/>
<path d="M2988 1674 c-84 -20 -154 -59 -215 -120 -77 -77 -98 -127 -98 -239 0
-81 3 -95 30 -144 35 -63 89 -110 171 -148 54 -25 72 -28 202 -31 220 -6 315
20 403 109 70 71 84 108 84 214 0 75 -4 98 -24 139 -30 60 -112 143 -180 179
-96 53 -254 70 -373 41z m237 -108 c66 -17 108 -39 156 -83 103 -93 111 -212
20 -303 -69 -69 -123 -85 -286 -84 -141 1 -190 13 -252 60 -161 123 -87 337
142 410 53 17 158 17 220 0z"/>
<path d="M3038 1416 c-25 -19 -22 -49 7 -76 18 -17 25 -34 25 -61 0 -36 20
-69 41 -69 30 0 49 22 49 56 0 24 9 46 25 66 47 56 24 104 -40 87 -21 -6 -43
-6 -60 1 -31 12 -26 12 -47 -4z"/>
<path d="M2510 1661 c-32 -9 -70 -75 -70 -121 0 -48 23 -77 71 -90 34 -9 45
-8 71 7 69 40 92 112 53 165 -32 43 -69 55 -125 39z"/>
<path d="M3645 1659 c-82 -43 -75 -150 13 -202 26 -15 37 -16 71 -7 47 12 71
42 71 88 0 38 -20 92 -41 109 -21 17 -90 25 -114 12z"/>
</g>
</svg>
